<?xml version="1.0" encoding="UTF-8" standalone="no"?>
<!-- Created with Inkscape (http://www.inkscape.org/) -->

<svg
   xmlns:dc="http://purl.org/dc/elements/1.1/"
   xmlns:cc="http://creativecommons.org/ns#"
   xmlns:rdf="http://www.w3.org/1999/02/22-rdf-syntax-ns#"
   xmlns:svg="http://www.w3.org/2000/svg"
   xmlns="http://www.w3.org/2000/svg"
   xmlns:sodipodi="http://sodipodi.sourceforge.net/DTD/sodipodi-0.dtd"
   xmlns:inkscape="http://www.inkscape.org/namespaces/inkscape"
   width="1280mm"
   height="720mm"
   viewBox="0 0 1280 720"
   version="1.1"
   id="svg8"
   sodipodi:docname="background.svg"
   inkscape:version="0.92.3 (2405546, 2018-03-11)">
  <defs
     id="defs2" />
  <sodipodi:namedview
     id="base"
     pagecolor="#ffffff"
     bordercolor="#666666"
     borderopacity="1.0"
     inkscape:pageopacity="0.0"
     inkscape:pageshadow="2"
     inkscape:zoom="0.0875"
     inkscape:cx="1191.0219"
     inkscape:cy="1886.0169"
     inkscape:document-units="mm"
     inkscape:current-layer="layer1"
     showgrid="false"
     inkscape:window-width="1366"
     inkscape:window-height="739"
     inkscape:window-x="0"
     inkscape:window-y="1"
     inkscape:window-maximized="1"
     width="2048mm" />
  <metadata
     id="metadata5">
    <rdf:RDF>
      <cc:Work
         rdf:about="">
        <dc:format>image/svg+xml</dc:format>
        <dc:type
           rdf:resource="http://purl.org/dc/dcmitype/StillImage" />
        <dc:title></dc:title>
      </cc:Work>
    </rdf:RDF>
  </metadata>
  <g
     inkscape:label="Camada 1"
     inkscape:groupmode="layer"
     id="layer1"
     transform="translate(0,423)">
    <g
       id="g892"
       transform="matrix(0.62500001,0,0,0.61729847,-2299.9378,-822.90126)">
      <rect
         style="opacity:1;fill:#00001b;fill-opacity:1;stroke:none;stroke-width:16.92100525;stroke-linecap:round;stroke-miterlimit:4;stroke-dasharray:none;stroke-opacity:1"
         id="rect847"
         width="2047.9998"
         height="1166.3726"
         x="-1138.842"
         y="-351.46027"
         ry="0" />
      <rect
         style="opacity:1;fill:#060010;fill-opacity:1;stroke:none;stroke-width:12.33428288;stroke-linecap:round;stroke-miterlimit:4;stroke-dasharray:none;stroke-opacity:1"
         id="rect849"
         width="205.5714"
         height="205.5714"
         x="-438.33527"
         y="559.80219"
         transform="matrix(0.70522996,0.70897863,-0.70522996,0.70897863,0,0)" />
      <rect
         transform="matrix(0.70522996,0.70897863,-0.70522996,0.70897863,0,0)"
         y="765.37354"
         x="-438.33527"
         height="205.5714"
         width="205.5714"
         id="rect851"
         style="opacity:1;fill:#00001b;fill-opacity:1;stroke:none;stroke-width:12.33428288;stroke-linecap:round;stroke-miterlimit:4;stroke-dasharray:none;stroke-opacity:1" />
      <rect
         style="opacity:1;fill:#000010;fill-opacity:1;stroke:none;stroke-width:12.33428288;stroke-linecap:round;stroke-miterlimit:4;stroke-dasharray:none;stroke-opacity:1"
         id="rect853"
         width="205.5714"
         height="205.5714"
         x="-849.47858"
         y="559.80219"
         transform="matrix(0.70522996,0.70897863,-0.70522996,0.70897863,0,0)" />
      <rect
         transform="matrix(0.70522996,0.70897863,-0.70522996,0.70897863,0,0)"
         y="354.2308"
         x="-849.47858"
         height="205.5714"
         width="205.5714"
         id="rect855"
         style="opacity:1;fill:#000016;fill-opacity:1;stroke:none;stroke-width:12.33428288;stroke-linecap:round;stroke-miterlimit:4;stroke-dasharray:none;stroke-opacity:1" />
      <rect
         transform="matrix(0.70522996,0.70897863,-0.70522996,0.70897863,0,0)"
         y="354.2308"
         x="-643.90741"
         height="205.5714"
         width="205.5714"
         id="rect857"
         style="opacity:1;fill:#000012;fill-opacity:1;stroke:none;stroke-width:12.33428288;stroke-linecap:round;stroke-miterlimit:4;stroke-dasharray:none;stroke-opacity:1" />
      <rect
         style="opacity:1;fill:#000016;fill-opacity:1;stroke:none;stroke-width:12.33428288;stroke-linecap:round;stroke-miterlimit:4;stroke-dasharray:none;stroke-opacity:1"
         id="rect859"
         width="205.5714"
         height="205.5714"
         x="-643.90741"
         y="559.80219"
         transform="matrix(0.70522996,0.70897863,-0.70522996,0.70897863,0,0)" />
      <rect
         transform="matrix(0.70522996,0.70897863,-0.70522996,0.70897863,0,0)"
         y="765.37354"
         x="-643.90741"
         height="205.5714"
         width="205.5714"
         id="rect861"
         style="opacity:1;fill:#000021;fill-opacity:1;stroke:none;stroke-width:12.33428288;stroke-linecap:round;stroke-miterlimit:4;stroke-dasharray:none;stroke-opacity:1" />
      <rect
         style="opacity:1;fill:#000012;fill-opacity:1;stroke:none;stroke-width:12.33428288;stroke-linecap:round;stroke-miterlimit:4;stroke-dasharray:none;stroke-opacity:1"
         id="rect863"
         width="205.5714"
         height="205.5714"
         x="-232.76414"
         y="765.37354"
         transform="matrix(0.70522996,0.70897863,-0.70522996,0.70897863,0,0)" />
      <rect
         style="opacity:1;fill:#000016;fill-opacity:1;stroke:none;stroke-width:12.33428288;stroke-linecap:round;stroke-miterlimit:4;stroke-dasharray:none;stroke-opacity:1"
         id="rect865"
         width="205.5714"
         height="205.5714"
         x="-438.33527"
         y="970.94495"
         transform="matrix(0.70522996,0.70897863,-0.70522996,0.70897863,0,0)" />
      <rect
         transform="matrix(0.70522996,0.70897863,-0.70522996,0.70897863,0,0)"
         y="970.94495"
         x="-232.76414"
         height="205.5714"
         width="205.5714"
         id="rect867"
         style="opacity:1;fill:#00000b;fill-opacity:1;stroke:none;stroke-width:12.33428288;stroke-linecap:round;stroke-miterlimit:4;stroke-dasharray:none;stroke-opacity:1" />
      <rect
         style="opacity:1;fill:#000021;fill-opacity:1;stroke:none;stroke-width:12.33428288;stroke-linecap:round;stroke-miterlimit:4;stroke-dasharray:none;stroke-opacity:1"
         id="rect869"
         width="205.5714"
         height="205.5714"
         x="-643.90741"
         y="148.65941"
         transform="matrix(0.70522996,0.70897863,-0.70522996,0.70897863,0,0)" />
      <rect
         transform="matrix(0.70522996,0.70897863,-0.70522996,0.70897863,0,0)"
         y="354.2308"
         x="-438.33527"
         height="205.5714"
         width="205.5714"
         id="rect871"
         style="opacity:1;fill:#060015;fill-opacity:1;stroke:none;stroke-width:12.33428288;stroke-linecap:round;stroke-miterlimit:4;stroke-dasharray:none;stroke-opacity:1" />
      <rect
         style="opacity:1;fill:#000015;fill-opacity:1;stroke:none;stroke-width:12.33428288;stroke-linecap:round;stroke-miterlimit:4;stroke-dasharray:none;stroke-opacity:1"
         id="rect873"
         width="205.5714"
         height="205.5714"
         x="-232.76414"
         y="559.80219"
         transform="matrix(0.70522996,0.70897863,-0.70522996,0.70897863,0,0)" />
      <rect
         style="opacity:1;fill:#000016;fill-opacity:1;stroke:none;stroke-width:12.33428288;stroke-linecap:round;stroke-miterlimit:4;stroke-dasharray:none;stroke-opacity:1"
         id="rect875"
         width="205.5714"
         height="205.5714"
         x="-27.193033"
         y="765.37354"
         transform="matrix(0.70522996,0.70897863,-0.70522996,0.70897863,0,0)" />
    </g>
    <rect
       style="opacity:1;fill:#00001b;fill-opacity:1;stroke:none;stroke-width:10.51026821;stroke-linecap:round;stroke-miterlimit:4;stroke-dasharray:none;stroke-opacity:1"
       id="rect815"
       width="1280"
       height="720"
       x="0"
       y="-423"
       ry="0" />
    <rect
       style="opacity:1;fill:#060010;fill-opacity:1;stroke:none;stroke-width:4.68712854;stroke-linecap:round;stroke-miterlimit:4;stroke-dasharray:none;stroke-opacity:1"
       id="rect819"
       width="78.118813"
       height="78.118813"
       x="-63.959385"
       y="-298.3165"
       transform="matrix(0.70522996,0.70897863,-0.70522996,0.70897863,0,0)" />
    <rect
       transform="matrix(0.70522996,0.70897863,-0.70522996,0.70897863,0,0)"
       y="-220.19772"
       x="-63.959385"
       height="78.118813"
       width="78.118813"
       id="rect821"
       style="opacity:1;fill:#00001b;fill-opacity:1;stroke:none;stroke-width:4.68712854;stroke-linecap:round;stroke-miterlimit:4;stroke-dasharray:none;stroke-opacity:1" />
    <rect
       style="opacity:1;fill:#000010;fill-opacity:1;stroke:none;stroke-width:4.68712854;stroke-linecap:round;stroke-miterlimit:4;stroke-dasharray:none;stroke-opacity:1"
       id="rect823"
       width="78.118813"
       height="78.118813"
       x="-220.19766"
       y="-298.3165"
       transform="matrix(0.70522996,0.70897863,-0.70522996,0.70897863,0,0)" />
    <rect
       transform="matrix(0.70522996,0.70897863,-0.70522996,0.70897863,0,0)"
       y="-376.43524"
       x="-220.19766"
       height="78.118813"
       width="78.118813"
       id="rect825"
       style="opacity:1;fill:#000016;fill-opacity:1;stroke:none;stroke-width:4.68712854;stroke-linecap:round;stroke-miterlimit:4;stroke-dasharray:none;stroke-opacity:1" />
    <rect
       transform="matrix(0.70522996,0.70897863,-0.70522996,0.70897863,0,0)"
       y="-376.43524"
       x="-142.07877"
       height="78.118813"
       width="78.118813"
       id="rect827"
       style="opacity:1;fill:#000012;fill-opacity:1;stroke:none;stroke-width:4.68712854;stroke-linecap:round;stroke-miterlimit:4;stroke-dasharray:none;stroke-opacity:1" />
    <rect
       style="opacity:1;fill:#000016;fill-opacity:1;stroke:none;stroke-width:4.68712854;stroke-linecap:round;stroke-miterlimit:4;stroke-dasharray:none;stroke-opacity:1"
       id="rect829"
       width="78.118813"
       height="78.118813"
       x="-142.07877"
       y="-298.3165"
       transform="matrix(0.70522996,0.70897863,-0.70522996,0.70897863,0,0)" />
    <rect
       transform="matrix(0.70522996,0.70897863,-0.70522996,0.70897863,0,0)"
       y="-220.19772"
       x="-142.07877"
       height="78.118813"
       width="78.118813"
       id="rect831"
       style="opacity:1;fill:#000021;fill-opacity:1;stroke:none;stroke-width:4.68712854;stroke-linecap:round;stroke-miterlimit:4;stroke-dasharray:none;stroke-opacity:1" />
    <rect
       style="opacity:1;fill:#000012;fill-opacity:1;stroke:none;stroke-width:4.68712854;stroke-linecap:round;stroke-miterlimit:4;stroke-dasharray:none;stroke-opacity:1"
       id="rect833"
       width="78.118813"
       height="78.118813"
       x="14.159009"
       y="-220.19772"
       transform="matrix(0.70522996,0.70897863,-0.70522996,0.70897863,0,0)" />
    <rect
       style="opacity:1;fill:#000016;fill-opacity:1;stroke:none;stroke-width:4.68712854;stroke-linecap:round;stroke-miterlimit:4;stroke-dasharray:none;stroke-opacity:1"
       id="rect835"
       width="78.118813"
       height="78.118813"
       x="-63.959385"
       y="-142.07889"
       transform="matrix(0.70522996,0.70897863,-0.70522996,0.70897863,0,0)" />
    <rect
       transform="matrix(0.70522996,0.70897863,-0.70522996,0.70897863,0,0)"
       y="-142.07889"
       x="14.159009"
       height="78.118813"
       width="78.118813"
       id="rect837"
       style="opacity:1;fill:#00000b;fill-opacity:1;stroke:none;stroke-width:4.68712854;stroke-linecap:round;stroke-miterlimit:4;stroke-dasharray:none;stroke-opacity:1" />
    <rect
       style="opacity:1;fill:#000021;fill-opacity:1;stroke:none;stroke-width:4.68712854;stroke-linecap:round;stroke-miterlimit:4;stroke-dasharray:none;stroke-opacity:1"
       id="rect839"
       width="78.118813"
       height="78.118813"
       x="-142.07877"
       y="-454.55408"
       transform="matrix(0.70522996,0.70897863,-0.70522996,0.70897863,0,0)" />
    <rect
       transform="matrix(0.70522996,0.70897863,-0.70522996,0.70897863,0,0)"
       y="-376.43524"
       x="-63.959385"
       height="78.118813"
       width="78.118813"
       id="rect841"
       style="opacity:1;fill:#060015;fill-opacity:1;stroke:none;stroke-width:4.68712854;stroke-linecap:round;stroke-miterlimit:4;stroke-dasharray:none;stroke-opacity:1" />
    <rect
       style="opacity:1;fill:#000015;fill-opacity:1;stroke:none;stroke-width:4.68712854;stroke-linecap:round;stroke-miterlimit:4;stroke-dasharray:none;stroke-opacity:1"
       id="rect843"
       width="78.118813"
       height="78.118813"
       x="14.159009"
       y="-298.3165"
       transform="matrix(0.70522996,0.70897863,-0.70522996,0.70897863,0,0)" />
    <rect
       style="opacity:1;fill:#00000e;fill-opacity:1;stroke:none;stroke-width:4.68712854;stroke-linecap:round;stroke-miterlimit:4;stroke-dasharray:none;stroke-opacity:1"
       id="rect845"
       width="78.118813"
       height="78.118813"
       x="92.277786"
       y="-220.19772"
       transform="matrix(0.70522996,0.70897863,-0.70522996,0.70897863,0,0)" />
    <rect
       transform="matrix(0.70522996,0.70897863,-0.70522996,0.70897863,0,0)"
       y="-454.55408"
       x="92.278152"
       height="78.118813"
       width="78.118813"
       id="rect1464"
       style="opacity:1;fill:#060010;fill-opacity:1;stroke:none;stroke-width:4.68712854;stroke-linecap:round;stroke-miterlimit:4;stroke-dasharray:none;stroke-opacity:1" />
    <rect
       style="opacity:1;fill:#00001b;fill-opacity:1;stroke:none;stroke-width:4.68712854;stroke-linecap:round;stroke-miterlimit:4;stroke-dasharray:none;stroke-opacity:1"
       id="rect1466"
       width="78.118813"
       height="78.118813"
       x="92.278152"
       y="-376.43524"
       transform="matrix(0.70522996,0.70897863,-0.70522996,0.70897863,0,0)" />
    <rect
       transform="matrix(0.70522996,0.70897863,-0.70522996,0.70897863,0,0)"
       y="-454.55408"
       x="-63.959385"
       height="78.118813"
       width="78.118813"
       id="rect1468"
       style="opacity:1;fill:#000010;fill-opacity:1;stroke:none;stroke-width:4.68712854;stroke-linecap:round;stroke-miterlimit:4;stroke-dasharray:none;stroke-opacity:1" />
    <rect
       style="opacity:1;fill:#000016;fill-opacity:1;stroke:none;stroke-width:4.68712854;stroke-linecap:round;stroke-miterlimit:4;stroke-dasharray:none;stroke-opacity:1"
       id="rect1470"
       width="78.118813"
       height="78.118813"
       x="-63.959385"
       y="-532.67291"
       transform="matrix(0.70522996,0.70897863,-0.70522996,0.70897863,0,0)" />
    <rect
       style="opacity:1;fill:#000012;fill-opacity:1;stroke:none;stroke-width:4.68712854;stroke-linecap:round;stroke-miterlimit:4;stroke-dasharray:none;stroke-opacity:1"
       id="rect1472"
       width="78.118813"
       height="78.118813"
       x="14.159009"
       y="-532.67291"
       transform="matrix(0.70522996,0.70897863,-0.70522996,0.70897863,0,0)" />
    <rect
       transform="matrix(0.70522996,0.70897863,-0.70522996,0.70897863,0,0)"
       y="-454.55408"
       x="14.159009"
       height="78.118813"
       width="78.118813"
       id="rect1474"
       style="opacity:1;fill:#000016;fill-opacity:1;stroke:none;stroke-width:4.68712854;stroke-linecap:round;stroke-miterlimit:4;stroke-dasharray:none;stroke-opacity:1" />
    <rect
       style="opacity:1;fill:#000021;fill-opacity:1;stroke:none;stroke-width:4.68712854;stroke-linecap:round;stroke-miterlimit:4;stroke-dasharray:none;stroke-opacity:1"
       id="rect1476"
       width="78.118813"
       height="78.118813"
       x="14.159009"
       y="-376.43524"
       transform="matrix(0.70522996,0.70897863,-0.70522996,0.70897863,0,0)" />
    <rect
       transform="matrix(0.70522996,0.70897863,-0.70522996,0.70897863,0,0)"
       y="-376.43524"
       x="170.39703"
       height="78.118813"
       width="78.118813"
       id="rect1478"
       style="opacity:1;fill:#000012;fill-opacity:1;stroke:none;stroke-width:4.68712854;stroke-linecap:round;stroke-miterlimit:4;stroke-dasharray:none;stroke-opacity:1" />
    <rect
       transform="matrix(0.70522996,0.70897863,-0.70522996,0.70897863,0,0)"
       y="-298.3165"
       x="92.278152"
       height="78.118813"
       width="78.118813"
       id="rect1480"
       style="opacity:1;fill:#000016;fill-opacity:1;stroke:none;stroke-width:4.68712854;stroke-linecap:round;stroke-miterlimit:4;stroke-dasharray:none;stroke-opacity:1" />
    <rect
       style="opacity:1;fill:#00000b;fill-opacity:1;stroke:none;stroke-width:4.68712854;stroke-linecap:round;stroke-miterlimit:4;stroke-dasharray:none;stroke-opacity:1"
       id="rect1482"
       width="78.118813"
       height="78.118813"
       x="170.39703"
       y="-298.3165"
       transform="matrix(0.70522996,0.70897863,-0.70522996,0.70897863,0,0)" />
    <rect
       transform="matrix(0.70522996,0.70897863,-0.70522996,0.70897863,0,0)"
       y="-610.79169"
       x="14.159009"
       height="78.118813"
       width="78.118813"
       id="rect1484"
       style="opacity:1;fill:#000021;fill-opacity:1;stroke:none;stroke-width:4.68712854;stroke-linecap:round;stroke-miterlimit:4;stroke-dasharray:none;stroke-opacity:1" />
    <rect
       style="opacity:1;fill:#060015;fill-opacity:1;stroke:none;stroke-width:4.68712854;stroke-linecap:round;stroke-miterlimit:4;stroke-dasharray:none;stroke-opacity:1"
       id="rect1486"
       width="78.118813"
       height="78.118813"
       x="92.278152"
       y="-532.67291"
       transform="matrix(0.70522996,0.70897863,-0.70522996,0.70897863,0,0)" />
    <rect
       transform="matrix(0.70522996,0.70897863,-0.70522996,0.70897863,0,0)"
       y="-454.55408"
       x="170.39703"
       height="78.118813"
       width="78.118813"
       id="rect1488"
       style="opacity:1;fill:#000015;fill-opacity:1;stroke:none;stroke-width:4.68712854;stroke-linecap:round;stroke-miterlimit:4;stroke-dasharray:none;stroke-opacity:1" />
    <rect
       transform="matrix(0.70522996,0.70897863,-0.70522996,0.70897863,0,0)"
       y="-376.43524"
       x="248.51569"
       height="78.118813"
       width="78.118813"
       id="rect1490"
       style="opacity:1;fill:#00000e;fill-opacity:1;stroke:none;stroke-width:4.68712854;stroke-linecap:round;stroke-miterlimit:4;stroke-dasharray:none;stroke-opacity:1" />
    <rect
       transform="matrix(0.70522996,0.70897863,-0.70522996,0.70897863,0,0)"
       y="14.158704"
       x="248.51569"
       height="78.118813"
       width="78.118813"
       id="rect1492"
       style="opacity:1;fill:#060010;fill-opacity:1;stroke:none;stroke-width:4.68712854;stroke-linecap:round;stroke-miterlimit:4;stroke-dasharray:none;stroke-opacity:1" />
    <rect
       transform="matrix(0.70522996,0.70897863,-0.70522996,0.70897863,0,0)"
       y="14.158704"
       x="92.277908"
       height="78.118813"
       width="78.118813"
       id="rect1496"
       style="opacity:1;fill:#000010;fill-opacity:1;stroke:none;stroke-width:4.68712854;stroke-linecap:round;stroke-miterlimit:4;stroke-dasharray:none;stroke-opacity:1" />
    <rect
       style="opacity:1;fill:#000016;fill-opacity:1;stroke:none;stroke-width:4.68712854;stroke-linecap:round;stroke-miterlimit:4;stroke-dasharray:none;stroke-opacity:1"
       id="rect1498"
       width="78.118813"
       height="78.118813"
       x="92.277908"
       y="-63.960102"
       transform="matrix(0.70522996,0.70897863,-0.70522996,0.70897863,0,0)" />
    <rect
       style="opacity:1;fill:#000017;fill-opacity:1;stroke:none;stroke-width:4.68712854;stroke-linecap:round;stroke-miterlimit:4;stroke-dasharray:none;stroke-opacity:1"
       id="rect1500"
       width="78.118813"
       height="78.118813"
       x="170.39667"
       y="-63.960102"
       transform="matrix(0.70522996,0.70897863,-0.70522996,0.70897863,0,0)" />
    <rect
       transform="matrix(0.70522996,0.70897863,-0.70522996,0.70897863,0,0)"
       y="14.158704"
       x="170.39667"
       height="78.118813"
       width="78.118813"
       id="rect1502"
       style="opacity:1;fill:#000016;fill-opacity:1;stroke:none;stroke-width:4.68712854;stroke-linecap:round;stroke-miterlimit:4;stroke-dasharray:none;stroke-opacity:1" />
    <rect
       style="opacity:1;fill:#000021;fill-opacity:1;stroke:none;stroke-width:4.68712854;stroke-linecap:round;stroke-miterlimit:4;stroke-dasharray:none;stroke-opacity:1"
       id="rect1504"
       width="78.118813"
       height="78.118813"
       x="170.39667"
       y="92.277504"
       transform="matrix(0.70522996,0.70897863,-0.70522996,0.70897863,0,0)" />
    <rect
       transform="matrix(0.70522996,0.70897863,-0.70522996,0.70897863,0,0)"
       y="-142.07889"
       x="170.39667"
       height="78.118813"
       width="78.118813"
       id="rect1512"
       style="opacity:1;fill:#000021;fill-opacity:1;stroke:none;stroke-width:4.68712854;stroke-linecap:round;stroke-miterlimit:4;stroke-dasharray:none;stroke-opacity:1" />
    <rect
       style="opacity:1;fill:#060015;fill-opacity:1;stroke:none;stroke-width:4.68712854;stroke-linecap:round;stroke-miterlimit:4;stroke-dasharray:none;stroke-opacity:1"
       id="rect1514"
       width="78.118813"
       height="78.118813"
       x="248.51569"
       y="-63.960102"
       transform="matrix(0.70522996,0.70897863,-0.70522996,0.70897863,0,0)" />
    <rect
       style="opacity:1;fill:#060010;fill-opacity:1;stroke:none;stroke-width:4.68712854;stroke-linecap:round;stroke-miterlimit:4;stroke-dasharray:none;stroke-opacity:1"
       id="rect1520"
       width="78.118813"
       height="78.118813"
       x="404.75357"
       y="-142.07889"
       transform="matrix(0.70522996,0.70897863,-0.70522996,0.70897863,0,0)" />
    <rect
       style="opacity:1;fill:#000010;fill-opacity:1;stroke:none;stroke-width:4.68712854;stroke-linecap:round;stroke-miterlimit:4;stroke-dasharray:none;stroke-opacity:1"
       id="rect1524"
       width="78.118813"
       height="78.118813"
       x="248.51569"
       y="-142.07889"
       transform="matrix(0.70522996,0.70897863,-0.70522996,0.70897863,0,0)" />
    <rect
       transform="matrix(0.70522996,0.70897863,-0.70522996,0.70897863,0,0)"
       y="-220.19766"
       x="248.51569"
       height="78.118813"
       width="78.118813"
       id="rect1526"
       style="opacity:1;fill:#000016;fill-opacity:1;stroke:none;stroke-width:4.68712854;stroke-linecap:round;stroke-miterlimit:4;stroke-dasharray:none;stroke-opacity:1" />
    <rect
       transform="matrix(0.70522996,0.70897863,-0.70522996,0.70897863,0,0)"
       y="-220.19766"
       x="326.63443"
       height="78.118813"
       width="78.118813"
       id="rect1528"
       style="opacity:1;fill:#000012;fill-opacity:1;stroke:none;stroke-width:4.68712854;stroke-linecap:round;stroke-miterlimit:4;stroke-dasharray:none;stroke-opacity:1" />
    <rect
       style="opacity:1;fill:#000016;fill-opacity:1;stroke:none;stroke-width:4.68712854;stroke-linecap:round;stroke-miterlimit:4;stroke-dasharray:none;stroke-opacity:1"
       id="rect1530"
       width="78.118813"
       height="78.118813"
       x="326.63443"
       y="-142.07889"
       transform="matrix(0.70522996,0.70897863,-0.70522996,0.70897863,0,0)" />
    <rect
       transform="matrix(0.70522996,0.70897863,-0.70522996,0.70897863,0,0)"
       y="-63.960102"
       x="326.63443"
       height="78.118813"
       width="78.118813"
       id="rect1532"
       style="opacity:1;fill:#000021;fill-opacity:1;stroke:none;stroke-width:4.68712854;stroke-linecap:round;stroke-miterlimit:4;stroke-dasharray:none;stroke-opacity:1" />
    <rect
       style="opacity:1;fill:#000021;fill-opacity:1;stroke:none;stroke-width:4.68712854;stroke-linecap:round;stroke-miterlimit:4;stroke-dasharray:none;stroke-opacity:1"
       id="rect1540"
       width="78.118813"
       height="78.118813"
       x="326.63443"
       y="-298.3165"
       transform="matrix(0.70522996,0.70897863,-0.70522996,0.70897863,0,0)" />
    <rect
       transform="matrix(0.70522996,0.70897863,-0.70522996,0.70897863,0,0)"
       y="-220.19766"
       x="404.75357"
       height="78.118813"
       width="78.118813"
       id="rect1542"
       style="opacity:1;fill:#060010;fill-opacity:1;stroke:none;stroke-width:4.68712854;stroke-linecap:round;stroke-miterlimit:4;stroke-dasharray:none;stroke-opacity:1" />
    <rect
       transform="matrix(0.70522996,0.70897863,-0.70522996,0.70897863,0,0)"
       y="-63.960102"
       x="14.159009"
       height="78.118813"
       width="78.118813"
       id="rect1548"
       style="opacity:1;fill:#000015;fill-opacity:1;stroke:none;stroke-width:4.68712854;stroke-linecap:round;stroke-miterlimit:4;stroke-dasharray:none;stroke-opacity:1" />
    <rect
       style="opacity:1;fill:#00001d;fill-opacity:1;stroke:none;stroke-width:4.68712854;stroke-linecap:round;stroke-miterlimit:4;stroke-dasharray:none;stroke-opacity:1"
       id="rect1550"
       width="78.118813"
       height="78.118813"
       x="92.277786"
       y="-142.07889"
       transform="matrix(0.70522996,0.70897863,-0.70522996,0.70897863,0,0)" />
    <rect
       style="opacity:1;fill:#060015;fill-opacity:1;stroke:none;stroke-width:4.68712854;stroke-linecap:round;stroke-miterlimit:4;stroke-dasharray:none;stroke-opacity:1"
       id="rect1552"
       width="78.118813"
       height="78.118813"
       x="170.39667"
       y="-220.19772"
       transform="matrix(0.70522996,0.70897863,-0.70522996,0.70897863,0,0)" />
    <rect
       transform="matrix(0.70522996,0.70897863,-0.70522996,0.70897863,0,0)"
       y="-298.3165"
       x="248.51569"
       height="78.118813"
       width="78.118813"
       id="rect1554"
       style="opacity:1;fill:#060017;fill-opacity:1;stroke:none;stroke-width:4.68712854;stroke-linecap:round;stroke-miterlimit:4;stroke-dasharray:none;stroke-opacity:1" />
    <rect
       transform="matrix(0.70522996,0.70897863,-0.70522996,0.70897863,0,0)"
       y="-532.67291"
       x="92.278152"
       height="78.118813"
       width="78.118813"
       id="rect1556"
       style="opacity:1;fill:#060015;fill-opacity:1;stroke:none;stroke-width:4.68712854;stroke-linecap:round;stroke-miterlimit:4;stroke-dasharray:none;stroke-opacity:1" />
    <rect
       transform="matrix(0.70522996,0.70897863,-0.70522996,0.70897863,0,0)"
       y="-376.43524"
       x="326.63443"
       height="78.118813"
       width="78.118813"
       id="rect1568"
       style="opacity:1;fill:#000021;fill-opacity:1;stroke:none;stroke-width:4.68712854;stroke-linecap:round;stroke-miterlimit:4;stroke-dasharray:none;stroke-opacity:1" />
    <rect
       style="opacity:1;fill:#00001a;fill-opacity:1;stroke:none;stroke-width:4.68712854;stroke-linecap:round;stroke-miterlimit:4;stroke-dasharray:none;stroke-opacity:1"
       id="rect1570"
       width="78.118813"
       height="78.118813"
       x="170.39703"
       y="-532.67291"
       transform="matrix(0.70522996,0.70897863,-0.70522996,0.70897863,0,0)" />
    <rect
       transform="matrix(0.70522996,0.70897863,-0.70522996,0.70897863,0,0)"
       y="-220.19766"
       x="482.87247"
       height="78.118813"
       width="78.118813"
       id="rect1572"
       style="opacity:1;fill:#060015;fill-opacity:1;stroke:none;stroke-width:4.68712854;stroke-linecap:round;stroke-miterlimit:4;stroke-dasharray:none;stroke-opacity:1" />
    <rect
       style="opacity:1;fill:#000021;fill-opacity:1;stroke:none;stroke-width:4.68712854;stroke-linecap:round;stroke-miterlimit:4;stroke-dasharray:none;stroke-opacity:1"
       id="rect1574"
       width="78.118813"
       height="78.118813"
       x="404.75333"
       y="-298.3165"
       transform="matrix(0.70522996,0.70897863,-0.70522996,0.70897863,0,0)" />
    <rect
       transform="matrix(0.70522996,0.70897863,-0.70522996,0.70897863,0,0)"
       y="-376.43518"
       x="482.8721"
       height="78.118813"
       width="78.118813"
       id="rect1576"
       style="opacity:1;fill:#060015;fill-opacity:1;stroke:none;stroke-width:4.68712854;stroke-linecap:round;stroke-miterlimit:4;stroke-dasharray:none;stroke-opacity:1" />
    <rect
       style="opacity:1;fill:#000012;fill-opacity:1;stroke:none;stroke-width:4.68712854;stroke-linecap:round;stroke-miterlimit:4;stroke-dasharray:none;stroke-opacity:1"
       id="rect1578"
       width="78.118813"
       height="78.118813"
       x="404.75333"
       y="-454.55396"
       transform="matrix(0.70522996,0.70897863,-0.70522996,0.70897863,0,0)" />
    <rect
       transform="matrix(0.70522996,0.70897863,-0.70522996,0.70897863,0,0)"
       y="-532.67291"
       x="248.51581"
       height="78.118813"
       width="78.118813"
       id="rect1580"
       style="opacity:1;fill:#060010;fill-opacity:1;stroke:none;stroke-width:4.68712854;stroke-linecap:round;stroke-miterlimit:4;stroke-dasharray:none;stroke-opacity:1" />
    <rect
       style="opacity:1;fill:#060015;fill-opacity:1;stroke:none;stroke-width:4.68712854;stroke-linecap:round;stroke-miterlimit:4;stroke-dasharray:none;stroke-opacity:1"
       id="rect1582"
       width="78.118813"
       height="78.118813"
       x="326.63467"
       y="-532.67291"
       transform="matrix(0.70522996,0.70897863,-0.70522996,0.70897863,0,0)" />
    <rect
       transform="matrix(0.70522996,0.70897863,-0.70522996,0.70897863,0,0)"
       y="-532.67273"
       x="482.8721"
       height="78.118813"
       width="78.118813"
       id="rect1584"
       style="opacity:1;fill:#000015;fill-opacity:1;stroke:none;stroke-width:4.68712854;stroke-linecap:round;stroke-miterlimit:4;stroke-dasharray:none;stroke-opacity:1" />
    <rect
       transform="matrix(0.70522996,0.70897863,-0.70522996,0.70897863,0,0)"
       y="-454.55402"
       x="248.51581"
       height="78.118813"
       width="78.118813"
       id="rect1586"
       style="opacity:1;fill:#000012;fill-opacity:1;stroke:none;stroke-width:4.68712854;stroke-linecap:round;stroke-miterlimit:4;stroke-dasharray:none;stroke-opacity:1" />
    <rect
       transform="matrix(0.70522996,0.70897863,-0.70522996,0.70897863,0,0)"
       y="-610.79169"
       x="170.39703"
       height="78.118813"
       width="78.118813"
       id="rect1588"
       style="opacity:1;fill:#000016;fill-opacity:1;stroke:none;stroke-width:4.68712854;stroke-linecap:round;stroke-miterlimit:4;stroke-dasharray:none;stroke-opacity:1" />
    <rect
       transform="matrix(0.70522996,0.70897863,-0.70522996,0.70897863,0,0)"
       y="-688.9104"
       x="92.277908"
       height="78.118813"
       width="78.118813"
       id="rect1590"
       style="opacity:1;fill:#000015;fill-opacity:1;stroke:none;stroke-width:4.68712854;stroke-linecap:round;stroke-miterlimit:4;stroke-dasharray:none;stroke-opacity:1" />
    <rect
       transform="matrix(0.70522996,0.70897863,-0.70522996,0.70897863,0,0)"
       y="-454.55389"
       x="560.99097"
       height="78.118813"
       width="78.118813"
       id="rect1592"
       style="opacity:1;fill:#060015;fill-opacity:1;stroke:none;stroke-width:4.68712854;stroke-linecap:round;stroke-miterlimit:4;stroke-dasharray:none;stroke-opacity:1" />
    <rect
       style="opacity:1;fill:#00000e;fill-opacity:1;stroke:none;stroke-width:4.68712854;stroke-linecap:round;stroke-miterlimit:4;stroke-dasharray:none;stroke-opacity:1"
       id="rect1594"
       width="78.118813"
       height="78.118813"
       x="560.99133"
       y="-298.3165"
       transform="matrix(0.70522996,0.70897863,-0.70522996,0.70897863,0,0)" />
    <rect
       transform="matrix(0.70522996,0.70897863,-0.70522996,0.70897863,0,0)"
       y="-610.79169"
       x="560.99097"
       height="78.118813"
       width="78.118813"
       id="rect1596"
       style="opacity:1;fill:#000016;fill-opacity:1;stroke:none;stroke-width:4.68712854;stroke-linecap:round;stroke-miterlimit:4;stroke-dasharray:none;stroke-opacity:1" />
    <rect
       transform="matrix(0.70522996,0.70897863,-0.70522996,0.70897863,0,0)"
       y="-610.7915"
       x="404.75333"
       height="78.118813"
       width="78.118813"
       id="rect1598"
       style="opacity:1;fill:#000010;fill-opacity:1;stroke:none;stroke-width:4.68712854;stroke-linecap:round;stroke-miterlimit:4;stroke-dasharray:none;stroke-opacity:1" />
    <rect
       style="opacity:1;fill:#000012;fill-opacity:1;stroke:none;stroke-width:4.68712854;stroke-linecap:round;stroke-miterlimit:4;stroke-dasharray:none;stroke-opacity:1"
       id="rect1600"
       width="78.118813"
       height="78.118813"
       x="326.63443"
       y="-298.3165"
       transform="matrix(0.70522996,0.70897863,-0.70522996,0.70897863,0,0)" />
  </g>
</svg>
